<mxfile host="65bd71144e">
    <diagram id="xxXQhpsO8CIIqTGJruQP" name="Page-1">
        <mxGraphModel dx="380" dy="536" grid="1" gridSize="10" guides="1" tooltips="1" connect="1" arrows="1" fold="1" page="1" pageScale="1" pageWidth="720" pageHeight="560" math="0" shadow="0">
            <root>
                <mxCell id="0"/>
                <mxCell id="1" parent="0"/>
                <mxCell id="FxhufUaBj3sl9I_H6THa-2" value="" style="rounded=0;whiteSpace=wrap;html=1;" parent="1" vertex="1">
                    <mxGeometry x="120" y="50" width="120" height="50" as="geometry"/>
                </mxCell>
                <mxCell id="FxhufUaBj3sl9I_H6THa-3" value="" style="rounded=0;whiteSpace=wrap;html=1;fillColor=#EDFFED;" parent="1" vertex="1">
                    <mxGeometry x="120" width="120" height="50" as="geometry"/>
                </mxCell>
                <mxCell id="FxhufUaBj3sl9I_H6THa-4" value="&lt;font face=&quot;monospace&quot;&gt;cap_add:&lt;br&gt;['CAP_A']&lt;/font&gt;" style="rounded=0;whiteSpace=wrap;html=1;fillColor=#CCFFCC;" parent="1" vertex="1">
                    <mxGeometry x="240" width="120" height="50" as="geometry"/>
                </mxCell>
                <mxCell id="FxhufUaBj3sl9I_H6THa-5" value="" style="endArrow=none;html=1;rounded=0;fontFamily=monospace;exitX=0;exitY=0;exitDx=0;exitDy=0;entryX=1;entryY=0;entryDx=0;entryDy=0;dashed=1;" parent="1" source="FxhufUaBj3sl9I_H6THa-3" target="FxhufUaBj3sl9I_H6THa-2" edge="1">
                    <mxGeometry width="50" height="50" relative="1" as="geometry">
                        <mxPoint x="310" y="230" as="sourcePoint"/>
                        <mxPoint x="360" y="180" as="targetPoint"/>
                    </mxGeometry>
                </mxCell>
                <mxCell id="FxhufUaBj3sl9I_H6THa-6" value="" style="rounded=0;whiteSpace=wrap;html=1;" parent="1" vertex="1">
                    <mxGeometry x="240" y="50" width="120" height="50" as="geometry"/>
                </mxCell>
                <mxCell id="FxhufUaBj3sl9I_H6THa-7" value="" style="rounded=0;whiteSpace=wrap;html=1;fillColor=#FFFFFF;" parent="1" vertex="1">
                    <mxGeometry x="360" width="120" height="50" as="geometry"/>
                </mxCell>
                <mxCell id="FxhufUaBj3sl9I_H6THa-8" value="" style="rounded=0;whiteSpace=wrap;html=1;fillColor=#FFFFFF;" parent="1" vertex="1">
                    <mxGeometry y="50" width="120" height="50" as="geometry"/>
                </mxCell>
                <mxCell id="FxhufUaBj3sl9I_H6THa-9" value="" style="endArrow=none;html=1;rounded=0;fontFamily=monospace;exitX=0;exitY=0;exitDx=0;exitDy=0;entryX=1;entryY=0;entryDx=0;entryDy=0;dashed=1;" parent="1" source="FxhufUaBj3sl9I_H6THa-8" edge="1">
                    <mxGeometry width="50" height="50" relative="1" as="geometry">
                        <mxPoint x="190" y="280" as="sourcePoint"/>
                        <mxPoint x="120" y="99.99999999999989" as="targetPoint"/>
                    </mxGeometry>
                </mxCell>
                <mxCell id="FxhufUaBj3sl9I_H6THa-10" value="" style="rounded=0;whiteSpace=wrap;html=1;fillColor=#FFFFFF;" parent="1" vertex="1">
                    <mxGeometry y="100" width="120" height="50" as="geometry"/>
                </mxCell>
                <mxCell id="FxhufUaBj3sl9I_H6THa-11" value="&lt;font face=&quot;monospace&quot;&gt;cap_drop:&lt;br&gt;['ALL']&lt;/font&gt;" style="rounded=0;whiteSpace=wrap;html=1;fillColor=#FF9999;" parent="1" vertex="1">
                    <mxGeometry y="150" width="120" height="50" as="geometry"/>
                </mxCell>
                <mxCell id="FxhufUaBj3sl9I_H6THa-12" value="" style="rounded=0;whiteSpace=wrap;html=1;" parent="1" vertex="1">
                    <mxGeometry x="360" y="50" width="120" height="50" as="geometry"/>
                </mxCell>
                <mxCell id="FxhufUaBj3sl9I_H6THa-13" value="" style="rounded=0;whiteSpace=wrap;html=1;fillColor=#FFFFFF;" parent="1" vertex="1">
                    <mxGeometry x="360" y="150" width="120" height="50" as="geometry"/>
                </mxCell>
                <mxCell id="FxhufUaBj3sl9I_H6THa-14" value="&lt;b&gt;no&lt;br&gt;capabilities&lt;/b&gt;" style="rounded=0;whiteSpace=wrap;html=1;" parent="1" vertex="1">
                    <mxGeometry x="120" y="150" width="120" height="50" as="geometry"/>
                </mxCell>
                <mxCell id="FxhufUaBj3sl9I_H6THa-15" value="&lt;font face=&quot;monospace&quot;&gt;CAP_A&lt;/font&gt;" style="rounded=0;whiteSpace=wrap;html=1;" parent="1" vertex="1">
                    <mxGeometry x="240" y="150" width="120" height="50" as="geometry"/>
                </mxCell>
                <mxCell id="FxhufUaBj3sl9I_H6THa-16" value="" style="rounded=0;whiteSpace=wrap;html=1;" parent="1" vertex="1">
                    <mxGeometry x="120" y="100" width="120" height="50" as="geometry"/>
                </mxCell>
                <mxCell id="FxhufUaBj3sl9I_H6THa-17" value="" style="rounded=0;whiteSpace=wrap;html=1;" parent="1" vertex="1">
                    <mxGeometry x="240" y="100" width="120" height="50" as="geometry"/>
                </mxCell>
                <mxCell id="FxhufUaBj3sl9I_H6THa-18" value="" style="rounded=0;whiteSpace=wrap;html=1;" parent="1" vertex="1">
                    <mxGeometry x="360" y="100" width="120" height="50" as="geometry"/>
                </mxCell>
                <mxCell id="90SJg4g6pCN0UQmAiP3m-1" value="TheDiveO, CC-BY-SA 4.0" style="text;html=1;resizable=0;autosize=1;align=center;verticalAlign=middle;points=[];fillColor=none;strokeColor=none;rounded=0;fontColor=#999999;" parent="1" vertex="1">
                    <mxGeometry y="200" width="150" height="20" as="geometry"/>
                </mxCell>
                <mxCell id="3" value="no&amp;nbsp;&lt;font face=&quot;monospace&quot;&gt;cap_add&lt;/font&gt;" style="text;html=1;strokeColor=none;align=center;verticalAlign=middle;whiteSpace=wrap;rounded=0;fillColor=#EDFFED;" vertex="1" parent="1">
                    <mxGeometry x="140" y="15" width="80" height="20" as="geometry"/>
                </mxCell>
            </root>
        </mxGraphModel>
    </diagram>
</mxfile>